<svg width="44" height="44" viewBox="0 0 44 44" fill="none" xmlns="http://www.w3.org/2000/svg">
<g clip-path="url(#clip0_15_3)">
<path d="M21.8776 1.15793e-05L12.3502 16.4999L21.8776 21.9999L31.4031 16.4999L31.8172 4.78489C27.4666 2.27306 22.9774 1.15793e-05 21.8776 1.15793e-05Z" fill="#DF6277"/>
<path d="M31.817 4.785L21.8776 22L31.4031 27.5L40.9306 11.0001C40.3806 10.0474 36.1676 7.29669 31.817 4.785Z" fill="#FB9168"/>
<path d="M40.9302 11.0001L21.8776 22L31.4031 27.5L41.7549 22C41.7549 16.9762 41.4802 11.9525 40.9302 11.0001Z" fill="#F3DB6C"/>
<path d="M21.8776 22V32.9999H40.9302C41.4802 32.0473 41.7544 27.0237 41.7544 22H21.8776Z" fill="#7AB392"/>
<path d="M21.8776 22V32.9999L31.817 39.2146C36.1676 36.7028 40.3803 33.9524 40.9302 32.9999L21.8776 22Z" fill="#4B7CBC"/>
<path d="M21.8776 22L12.3502 27.5L21.8776 43.9999C22.9776 43.9999 27.4664 41.7266 31.817 39.2146L21.8776 22Z" fill="#6F488C"/>
<path d="M12.3502 16.5L2.82462 32.9999C3.92461 34.9052 19.6775 43.9999 21.8772 43.9999V22L12.3502 16.5Z" fill="#4D3F33"/>
<path d="M2.825 11.0001C1.725 12.9053 1.725 31.0947 2.825 32.9999L21.8776 22V11.0001H2.825Z" fill="#7A573B"/>
<path d="M21.8776 0C19.6776 -7.55906e-08 3.92484 9.09468 2.825 10.9999L21.8776 21.9999V0Z" fill="#99CD61"/>
<path d="M21.88 11C20.78 11 12.9048 15.5474 12.3548 16.4999L21.88 32.9999L31.4071 16.4999C30.8571 15.5473 22.9802 11 21.88 11Z" fill="white"/>
<path d="M12.355 16.4999L21.8803 32.9998C22.9803 32.9998 30.8575 28.4525 31.4072 27.4999C31.9572 26.5473 31.9572 17.4524 31.4072 16.4999L21.8803 21.9997L12.355 16.4999Z" fill="#DFDFDF"/>
<path d="M12.3528 16.5C11.8028 17.4527 11.8028 26.5475 12.3528 27.5C12.9028 28.4526 20.7781 32.9999 21.8783 32.9999V22L12.3528 16.5Z" fill="#D6D2D2"/>
</g>
<defs>
<clipPath id="clip0_15_3">
<rect width="44" height="44" fill="white"/>
</clipPath>
</defs>
</svg>
